<svg xmlns="http://www.w3.org/2000/svg" width="53" height="48" viewBox="0 0 53 48">
    <g fill="none" fill-rule="evenodd">
        <path fill="#0F1E32" d="M17.392 2.928v4.263c0 1.139-.313 2.02-.936 2.642-.625.622-1.512.932-2.665.932-.558 0-1.049-.087-1.477-.259a2.481 2.481 0 0 1-1.073-.832c-.289.382-.643.66-1.065.832-.423.172-.923.259-1.5.259-1.161 0-2.051-.31-2.664-.932-.616-.623-.923-1.503-.923-2.642V2.928h2.248v4.091c0 .64.11 1.113.331 1.414.22.301.567.453 1.038.453.48 0 .836-.154 1.066-.46.23-.307.346-.776.346-1.407V2.928h2.248v4.091c0 .631.115 1.1.347 1.407.23.306.585.46 1.065.46.47 0 .816-.152 1.038-.453.22-.3.332-.771.332-1.414V2.928h2.244zM26.446 3.674c.591.574.886 1.425.886 2.555v4.421h-2.248V6.574c0-.613-.135-1.069-.404-1.372-.268-.3-.658-.452-1.167-.452-.567 0-1.018.176-1.355.524-.335.35-.504.868-.504 1.559v3.817h-2.248V0h2.248v3.733a2.975 2.975 0 0 1 1.08-.681 3.944 3.944 0 0 1 1.383-.237c.963-.001 1.738.285 2.33.859z"/>
        <path fill="#0F1E32" fill-rule="nonzero" d="M37.319 2.928v7.722H35.17v-.89c-.558.67-1.364 1.005-2.42 1.005-.73 0-1.39-.163-1.981-.487a3.495 3.495 0 0 1-1.39-1.392c-.336-.602-.504-1.302-.504-2.096s.168-1.493.504-2.095c.335-.604.8-1.067 1.39-1.392a4.042 4.042 0 0 1 1.98-.488c.99 0 1.763.31 2.32.933V2.93h2.249v-.002zm-2.767 5.418c.374-.387.561-.906.561-1.558 0-.65-.187-1.17-.561-1.558-.374-.388-.845-.581-1.412-.581-.577 0-1.053.193-1.427.581-.374.388-.562.907-.562 1.558 0 .652.188 1.17.562 1.558.374.388.85.582 1.427.582.567 0 1.038-.194 1.412-.582z"/>
        <path fill="#0F1E32" d="M44.06 10.278a2.32 2.32 0 0 1-.813.365 4.08 4.08 0 0 1-1 .122c-.933 0-1.648-.235-2.149-.703-.5-.47-.748-1.158-.748-2.068V1.22h2.248v1.882h1.916v1.722h-1.916v3.144c0 .325.081.576.244.753.163.177.399.266.706.266.347 0 .653-.096.923-.286l.59 1.577zM15.85 27.502a2.32 2.32 0 0 1-.814.366 4.08 4.08 0 0 1-1 .122c-.932 0-1.648-.235-2.148-.704-.5-.469-.749-1.157-.749-2.068v-6.775h2.248v1.881h1.916v1.723h-1.918v3.144c0 .325.082.576.245.753.163.177.398.266.706.266.346 0 .652-.096.923-.286l.591 1.578zM24.156 20.9c.59.574.886 1.426.886 2.555v4.422h-2.248V23.8c0-.613-.136-1.07-.404-1.372-.269-.301-.658-.452-1.168-.452-.567 0-1.017.175-1.354.524-.338.349-.504.868-.504 1.558v3.818h-2.246V17.225h2.247v3.733a2.975 2.975 0 0 1 1.08-.682 3.944 3.944 0 0 1 1.383-.236c.962-.002 1.737.286 2.328.86z"/>
        <path fill="#0F1E32" fill-rule="nonzero" d="M32.137 26.016c.312-.12.603-.308.871-.567l1.196 1.293c-.73.832-1.796 1.248-3.199 1.248-.875 0-1.647-.17-2.32-.51-.673-.34-1.192-.81-1.557-1.414-.365-.604-.546-1.287-.546-2.053 0-.755.18-1.438.54-2.046a3.772 3.772 0 0 1 1.485-1.421c.628-.34 1.338-.51 2.126-.51.739 0 1.412.155 2.016.467.606.312 1.088.761 1.447 1.35.36.589.541 1.285.541 2.088l-5.735 1.106c.163.382.42.67.77.862.35.192.78.286 1.29.286.406.002.764-.059 1.075-.179zm-2.787-3.738c-.356.363-.543.865-.561 1.506l3.774-.733a1.69 1.69 0 0 0-.648-.962c-.326-.238-.721-.358-1.182-.358-.567.002-1.029.183-1.383.547z"/>
        <path fill="#0F1E32" d="M44.06 20.153v6.432c0 1.416-.36 2.468-1.08 3.158-.72.689-1.768 1.034-3.141 1.034-.73 0-1.42-.09-2.068-.273-.649-.183-1.194-.445-1.636-.79l.893-1.608c.326.268.724.478 1.195.631.47.153.945.23 1.427.23.749 0 1.297-.173 1.642-.518.346-.345.519-.871.519-1.578v-.259c-.288.286-.63.508-1.023.661a3.471 3.471 0 0 1-1.268.23c-1.017 0-1.825-.29-2.42-.869-.595-.58-.893-1.447-.893-2.604v-3.876h2.248V23.7c0 1.254.522 1.881 1.571 1.881.538 0 .97-.175 1.297-.524.326-.349.49-.868.49-1.558v-3.345h2.247zM19.38 44.978c-.615-.159-1.104-.356-1.47-.596l.75-1.608c.346.22.763.4 1.254.539.49.138.97.208 1.44.208.95 0 1.427-.234 1.427-.703 0-.22-.13-.379-.39-.475-.259-.096-.657-.177-1.195-.243a11.38 11.38 0 0 1-1.57-.33 2.428 2.428 0 0 1-1.072-.662c-.302-.315-.454-.766-.454-1.35 0-.487.14-.92.424-1.299.284-.378.697-.672 1.24-.882.543-.21 1.184-.316 1.923-.316.547 0 1.094.059 1.635.179.543.12.991.284 1.347.495l-.749 1.593a4.494 4.494 0 0 0-2.233-.574c-.48 0-.841.066-1.08.201-.24.135-.36.307-.36.517 0 .24.13.406.39.502.26.096.672.187 1.24.273.633.106 1.152.218 1.556.338.404.12.754.338 1.053.654.298.315.446.757.446 1.32 0 .478-.144.904-.432 1.277-.287.373-.707.663-1.26.868-.552.205-1.208.308-1.966.308a7.353 7.353 0 0 1-1.894-.234z"/>
        <path fill="#0F1E32" fill-rule="nonzero" d="M34.178 37.377V45.1h-2.146v-.89c-.558.67-1.364 1.004-2.42 1.004-.73 0-1.39-.162-1.982-.487a3.495 3.495 0 0 1-1.39-1.392c-.335-.602-.503-1.302-.503-2.096 0-.793.168-1.493.504-2.095a3.483 3.483 0 0 1 1.39-1.392 4.042 4.042 0 0 1 1.98-.487c.99 0 1.763.31 2.32.932v-.818h2.247v-.002zm-2.767 5.419c.374-.388.561-.907.561-1.558 0-.65-.187-1.17-.561-1.559-.374-.387-.845-.581-1.412-.581-.577 0-1.053.194-1.427.581-.375.388-.562.907-.562 1.559 0 .651.187 1.17.562 1.558.374.387.85.581 1.427.581.567 0 1.038-.194 1.412-.581z"/>
        <path fill="#0F1E32" d="M44.06 37.377v6.43c0 1.416-.36 2.469-1.08 3.16-.72.688-1.768 1.033-3.141 1.033-.73 0-1.42-.09-2.068-.273-.649-.183-1.194-.445-1.636-.79l.893-1.608c.326.267.724.478 1.195.631.47.153.945.229 1.427.229.749 0 1.297-.172 1.642-.517.346-.345.519-.871.519-1.578v-.259c-.29.286-.63.508-1.023.661a3.471 3.471 0 0 1-1.268.229c-1.017 0-1.825-.29-2.42-.868-.595-.58-.893-1.447-.893-2.605v-3.875h2.248v3.545c0 1.253.524 1.881 1.571 1.881.538 0 .97-.175 1.297-.524.326-.35.49-.868.49-1.558v-3.346h2.247v.002z"/>
        <path fill="#EB3E4A" d="M.469 10.407A13.97 13.97 0 0 1 0 6.718c0-1.31.156-2.542.469-3.696C.78 1.868 1.225.86 1.8 0h2.146a12.948 12.948 0 0 0-1.325 3.236 14.106 14.106 0 0 0-.417 3.482c0 1.226.14 2.385.417 3.48.278 1.095.721 2.175 1.325 3.236H1.801c-.576-.87-1.02-1.879-1.332-3.027zM45.92 44.814a1.363 1.363 0 0 1-.405-1.005c0-.411.135-.744.404-.997s.6-.38.993-.38.725.127.994.38c.268.253.404.587.404.997 0 .403-.136.737-.404 1.005-.269.267-.6.402-.994.402-.392 0-.724-.135-.993-.402zM48.945 47.886a13.19 13.19 0 0 0 1.333-3.237 13.85 13.85 0 0 0 .424-3.48c0-1.224-.143-2.385-.424-3.48a13.232 13.232 0 0 0-1.333-3.236h2.148c.586.851 1.036 1.853 1.347 3.007.312 1.154.47 2.391.47 3.711 0 1.32-.155 2.553-.462 3.696-.308 1.143-.76 2.15-1.355 3.022h-2.148v-.003z"/>
    </g>
</svg>
