<svg xmlns="http://www.w3.org/2000/svg" xmlns:xlink="http://www.w3.org/1999/xlink" width="16" height="16" viewBox="0 0 16 16">
    <defs>
        <path id="a" d="M8 .25A7.749 7.749 0 0 0 .25 8 7.749 7.749 0 0 0 8 15.75 7.749 7.749 0 0 0 15.75 8 7.749 7.749 0 0 0 8 .25zm-4.125 9a.376.376 0 0 1-.375-.375v-1.75c0-.206.169-.375.375-.375h8.25c.206 0 .375.169.375.375v1.75a.376.376 0 0 1-.375.375h-8.25z"/>
    </defs>
    <g fill="none" fill-rule="evenodd">
        <mask id="b" fill="#fff">
            <use xlink:href="#a"/>
        </mask>
        <use fill="#000" fill-rule="nonzero" xlink:href="#a"/>
        <g fill="#EB3E4A" mask="url(#b)">
            <path d="M0 0h16v16H0z"/>
        </g>
    </g>
</svg>
